<svg width="361" height="278" viewBox="0 0 361 278" fill="none" xmlns="http://www.w3.org/2000/svg">
<g filter="url(#filter0_d_56_2041)">
<path d="M54.3704 61.2395C66.7491 55.3891 82.167 59.0959 97.2243 61.6685C97.3644 58.553 99.0628 54.7613 97.2837 52.5877C95.1223 49.947 95.3213 47.1724 96.6219 44.3818C99.9478 37.2459 95.1827 29.6528 90.3713 23.3393C89.2869 21.9194 87.9164 20.8038 86.3711 20.0831C84.8257 19.3624 83.1492 19.0569 81.4777 19.1913L72.5651 19.8987C70.3963 20.0709 68.3265 20.9749 66.6327 22.4899C64.939 24.0048 63.702 26.0584 63.0873 28.3759C60.9591 31.5921 59.8201 34.7993 60.5372 37.9899C57.3496 40.4105 56.814 43.3324 58.2464 46.6263C59.461 48.7003 59.4481 50.7191 58.1912 52.682C56.5404 55.1846 55.2761 57.9751 54.45 60.9391L54.3704 61.2395Z" fill="#2F2E41"/>
<path d="M348.54 238.598H96.2464C94.0028 238.598 91.8511 237.607 90.2646 235.844C88.6781 234.081 87.7869 231.69 87.7869 229.197C179.243 217.387 268.981 217.387 357 229.197C357 231.69 356.109 234.081 354.522 235.844C352.936 237.607 350.784 238.598 348.54 238.598Z" fill="#2F2E41"/>
<path d="M357 229.75L87.7869 229.197L118.988 170.861L119.137 170.585V42.0186C119.137 40.4581 119.413 38.9128 119.951 37.4711C120.488 36.0293 121.276 34.7193 122.269 33.6159C123.262 32.5124 124.441 31.6371 125.738 31.04C127.036 30.4429 128.427 30.1356 129.831 30.1357H313.463C314.867 30.1356 316.258 30.4429 317.556 31.04C318.853 31.6371 320.032 32.5124 321.025 33.6159C322.018 34.7193 322.806 36.0293 323.343 37.4711C323.881 38.9128 324.157 40.4581 324.157 42.0186V171.47L357 229.75Z" fill="#3F3D56"/>
<path d="M129.587 38.43C128.664 38.4311 127.778 38.8393 127.125 39.5649C126.472 40.2906 126.105 41.2744 126.104 42.3006V159.526C126.105 160.552 126.472 161.536 127.125 162.261C127.778 162.987 128.664 163.395 129.587 163.396H315.2C316.123 163.395 317.009 162.987 317.662 162.261C318.315 161.536 318.682 160.552 318.683 159.526V42.3006C318.682 41.2744 318.315 40.2906 317.662 39.565C317.009 38.8393 316.123 38.4312 315.2 38.43H129.587Z" fill="white"/>
<path d="M130.365 178.879C130.079 178.88 129.8 178.971 129.56 179.142C129.319 179.313 129.128 179.557 129.008 179.845L119.395 203.068C119.29 203.321 119.244 203.599 119.261 203.877C119.279 204.154 119.359 204.422 119.494 204.657C119.629 204.891 119.815 205.084 120.034 205.217C120.254 205.351 120.5 205.421 120.751 205.421H322.927C323.181 205.421 323.432 205.348 323.654 205.211C323.876 205.073 324.063 204.874 324.197 204.634C324.331 204.393 324.407 204.119 324.418 203.836C324.43 203.554 324.376 203.273 324.262 203.02L313.812 179.796C313.689 179.52 313.498 179.288 313.262 179.126C313.026 178.964 312.754 178.878 312.477 178.879H130.365Z" fill="#2F2E41"/>
<path d="M221.647 36.4946C222.884 36.4946 223.886 35.3806 223.886 34.0064C223.886 32.6321 222.884 31.5181 221.647 31.5181C220.41 31.5181 219.408 32.6321 219.408 34.0064C219.408 35.3806 220.41 36.4946 221.647 36.4946Z" fill="white"/>
<path d="M201.775 209.844C201.447 209.845 201.128 209.965 200.867 210.187C200.607 210.409 200.419 210.72 200.333 211.072L197.922 221.025C197.862 221.271 197.854 221.528 197.899 221.778C197.943 222.028 198.039 222.263 198.178 222.465C198.318 222.667 198.497 222.831 198.702 222.944C198.908 223.056 199.134 223.115 199.363 223.115H245.226C245.464 223.115 245.698 223.052 245.91 222.931C246.121 222.809 246.304 222.634 246.442 222.418C246.58 222.203 246.669 221.954 246.703 221.692C246.737 221.43 246.714 221.163 246.636 220.913L243.536 210.96C243.434 210.635 243.243 210.352 242.991 210.152C242.738 209.952 242.435 209.844 242.125 209.844H201.775Z" fill="#2F2E41"/>
<path d="M324.157 168.65V170.861H118.988L119.142 170.585V168.65H324.157Z" fill="#2F2E41"/>
<path d="M318.434 77.4129C337.672 77.4129 353.268 60.0834 353.268 38.7064C353.268 17.3295 337.672 0 318.434 0C299.196 0 283.601 17.3295 283.601 38.7064C283.601 60.0834 299.196 77.4129 318.434 77.4129Z" fill="#008000"/>
<path d="M332.865 55.5714H304.003C303.476 55.5708 302.97 55.3376 302.597 54.9229C302.223 54.5083 302.013 53.946 302.013 53.3596V34.0064C302.014 33.42 302.223 32.8578 302.597 32.4431C302.97 32.0284 303.476 31.7952 304.003 31.7946H332.865C333.393 31.7952 333.899 32.0284 334.272 32.4431C334.645 32.8578 334.855 33.42 334.856 34.0064V53.3596C334.855 53.946 334.646 54.5083 334.272 54.9229C333.899 55.3376 333.393 55.5708 332.865 55.5714ZM304.003 34.0064V53.3596H332.867L332.865 34.0064L304.003 34.0064Z" fill="white"/>
<path d="M327.391 34.0064H309.477V25.1592C309.477 18.7511 313.244 14.1002 318.434 14.1002C323.624 14.1002 327.391 18.7511 327.391 25.1592L327.391 34.0064ZM311.468 31.7946H325.401V25.1592C325.401 19.9501 322.536 16.312 318.434 16.312C314.332 16.312 311.468 19.9502 311.468 25.1592L311.468 31.7946Z" fill="white"/>
<path d="M318.434 45.3418C319.534 45.3418 320.425 44.3516 320.425 43.13C320.425 41.9085 319.534 40.9182 318.434 40.9182C317.335 40.9182 316.444 41.9085 316.444 43.13C316.444 44.3516 317.335 45.3418 318.434 45.3418Z" fill="white"/>
<path d="M294.118 123.635H150.669C149.965 123.634 149.29 123.323 148.792 122.769C148.294 122.216 148.014 121.466 148.013 120.683V81.1434C148.014 80.3608 148.294 79.6105 148.792 79.0571C149.29 78.5038 149.965 78.1925 150.669 78.1916H294.118C294.822 78.1925 295.497 78.5038 295.995 79.0571C296.493 79.6105 296.773 80.3608 296.774 81.1434V120.683C296.773 121.466 296.493 122.216 295.995 122.769C295.497 123.323 294.822 123.634 294.118 123.635ZM150.669 79.3723C150.247 79.3728 149.842 79.5596 149.543 79.8916C149.244 80.2236 149.076 80.6738 149.076 81.1434V120.683C149.076 121.153 149.244 121.603 149.543 121.935C149.842 122.267 150.247 122.454 150.669 122.454H294.118C294.54 122.454 294.945 122.267 295.244 121.935C295.543 121.603 295.711 121.153 295.711 120.683V81.1434C295.711 80.6738 295.543 80.2236 295.244 79.8916C294.945 79.5595 294.54 79.3728 294.118 79.3723L150.669 79.3723Z" fill="#E6E6E6"/>
<path d="M172.958 111.42C178.934 111.42 183.779 106.037 183.779 99.3961C183.779 92.7554 178.934 87.372 172.958 87.372C166.982 87.372 162.137 92.7554 162.137 99.3961C162.137 106.037 166.982 111.42 172.958 111.42Z" fill="#E6E6E6"/>
<path d="M197.949 91.38C197.712 91.3796 197.477 91.4311 197.258 91.5317C197.039 91.6322 196.84 91.7797 196.672 91.9659C196.505 92.152 196.371 92.3731 196.281 92.6164C196.19 92.8598 196.143 93.1206 196.143 93.384C196.143 93.6475 196.19 93.9083 196.281 94.1517C196.371 94.395 196.505 94.6161 196.672 94.8022C196.84 94.9884 197.039 95.1359 197.258 95.2364C197.477 95.3369 197.712 95.3885 197.949 95.3881H282.971C283.449 95.3881 283.908 95.1769 284.246 94.8011C284.585 94.4253 284.775 93.9155 284.775 93.384C284.775 92.8526 284.585 92.3428 284.246 91.967C283.908 91.5912 283.449 91.38 282.971 91.38H197.949Z" fill="#E6E6E6"/>
<path d="M197.949 103.404C197.471 103.404 197.012 103.615 196.674 103.991C196.336 104.367 196.146 104.877 196.146 105.408C196.146 105.94 196.336 106.449 196.674 106.825C197.012 107.201 197.471 107.412 197.949 107.412H234.535C235.013 107.412 235.472 107.201 235.81 106.825C236.148 106.449 236.338 105.94 236.338 105.408C236.338 104.877 236.148 104.367 235.81 103.991C235.472 103.615 235.013 103.404 234.535 103.404H197.949Z" fill="#E6E6E6"/>
<path d="M118.635 104.215L92.1172 119.88L91.7815 106.826C100.437 105.22 108.671 102.425 116.285 97.874L119.058 90.2603C119.361 89.4306 119.852 88.7026 120.484 88.1476C121.116 87.5926 121.867 87.2297 122.663 87.0946C123.459 86.9595 124.273 87.0568 125.025 87.377C125.778 87.6971 126.442 88.2291 126.953 88.9207C127.701 89.9326 128.075 91.2226 127.999 92.5294C127.923 93.8361 127.403 95.062 126.544 95.9586L118.635 104.215Z" fill="#FFB8B8"/>
<path d="M53.8417 194.661C53.6483 193.873 53.6072 193.048 53.7212 192.24C53.8352 191.433 54.1017 190.662 54.5032 189.977L60.3283 180.044C61.7061 177.694 63.8202 175.997 66.2604 175.282C68.7007 174.566 71.293 174.884 73.5346 176.172C71.0865 180.803 71.4278 184.865 74.3801 188.395C69.7969 190.881 65.561 194.09 61.8036 197.922C61.1176 198.442 60.3299 198.771 59.5059 198.884C58.682 198.997 57.8457 198.89 57.0667 198.571C56.2877 198.252 55.5887 197.73 55.0277 197.05C54.4667 196.37 54.0601 195.551 53.8417 194.661Z" fill="#2F2E41"/>
<path d="M119.843 181.673C118.961 183.305 117.717 184.658 116.229 185.603C114.741 186.547 113.06 187.05 111.347 187.065L72.6488 187.391L70.9705 176.574L88.0894 170.979L73.6558 158.671L89.432 138.156L118.087 167.833C119.761 169.568 120.849 171.888 121.169 174.407C121.489 176.927 121.02 179.491 119.843 181.673Z" fill="#2F2E41"/>
<path d="M66.6067 255.647H57.5437C49.4065 193.668 41.1236 131.516 65.5997 108.318L94.4668 113.539L90.7745 140.767L74.6626 161.282L66.6067 255.647Z" fill="#2F2E41"/>
<path d="M74.5736 269.687C73.8641 269.902 73.1217 269.948 72.3952 269.821C71.6687 269.694 70.9745 269.398 70.3584 268.952L60.5179 267.483C58.4033 265.952 56.8759 263.603 56.232 260.891C55.588 258.18 55.8735 255.299 57.033 252.808C61.2003 255.528 64.8559 255.149 68.0327 251.868C70.2773 256.904 73.9756 256.597 77.5076 260.84C77.9753 261.602 78.2723 262.477 78.3739 263.393C78.4754 264.308 78.3787 265.238 78.0916 266.103C77.8046 266.969 77.3355 267.746 76.7236 268.369C76.1116 268.992 75.3745 269.444 74.5736 269.687Z" fill="#2F2E41"/>
<path d="M88.0892 66.9162L71.3059 62.4404C74.0933 56.1004 74.3229 49.0458 72.9842 41.5532L84.3968 41.1802C84.7544 50.4974 85.8363 59.2021 88.0892 66.9162Z" fill="#FFB8B8"/>
<path d="M92.7019 124.77C80.4843 134.021 71.8517 125.086 65.264 111.301C66.1795 102.866 64.6973 92.7722 61.9521 81.804C60.7313 76.9662 61.1871 71.7957 63.2295 67.3131C65.272 62.8305 68.7526 59.3618 72.9843 57.5916L87.4179 64.3053C99.6737 75.4059 102.086 87.4301 97.4879 100.112L92.7019 124.77Z" fill="#008000"/>
<path d="M57.5438 76.2409L44.1172 84.0735L67.9494 99.7389L71.2655 108.828C71.4868 109.435 71.5946 110.085 71.5824 110.74C71.5701 111.394 71.438 112.039 71.1941 112.635C70.9503 113.231 70.5998 113.765 70.1639 114.206C69.7281 114.646 69.2161 114.983 68.6592 115.197C68.0261 115.439 67.3511 115.516 66.687 115.42C66.0229 115.324 65.3877 115.059 64.8313 114.645C64.2748 114.231 63.8122 113.68 63.4796 113.034C63.147 112.388 62.9534 111.665 62.9141 110.922L62.5787 104.588L32.2883 93.4805C31.2677 93.1063 30.3372 92.4789 29.5672 91.6459C28.7971 90.8129 28.2078 89.796 27.8437 88.6725C27.3131 87.0347 27.2861 85.2476 27.7669 83.5909C28.2478 81.9342 29.2093 80.5014 30.501 79.5167L54.8584 60.9485L57.5438 76.2409Z" fill="#FFB8B8"/>
<path d="M70.9704 77.7328C65.3706 75.0059 60.2787 77.9681 53.8515 80.3437L52.8445 60.5755C59.2264 56.7958 65.3112 55.7767 70.9704 58.7106L70.9704 77.7328Z" fill="#008000"/>
<path d="M77.6688 50.9721C83.5868 50.9721 88.3843 45.6412 88.3843 39.0653C88.3843 32.4893 83.5868 27.1584 77.6688 27.1584C71.7508 27.1584 66.9534 32.4893 66.9534 39.0653C66.9534 45.6412 71.7508 50.9721 77.6688 50.9721Z" fill="#FFB8B8"/>
<path d="M90.488 37.5629C79.8787 38.7175 71.7946 36.7895 66.6279 31.2998V26.8788H89.5876L90.488 37.5629Z" fill="#2F2E41"/>
</g>
<defs>
<filter id="filter0_d_56_2041" x="-4" y="0" width="365" height="284" filterUnits="userSpaceOnUse" color-interpolation-filters="sRGB">
<feFlood flood-opacity="0" result="BackgroundImageFix"/>
<feColorMatrix in="SourceAlpha" type="matrix" values="0 0 0 0 0 0 0 0 0 0 0 0 0 0 0 0 0 0 127 0" result="hardAlpha"/>
<feOffset dy="4"/>
<feGaussianBlur stdDeviation="2"/>
<feComposite in2="hardAlpha" operator="out"/>
<feColorMatrix type="matrix" values="0 0 0 0 0 0 0 0 0 0 0 0 0 0 0 0 0 0 0.25 0"/>
<feBlend mode="normal" in2="BackgroundImageFix" result="effect1_dropShadow_56_2041"/>
<feBlend mode="normal" in="SourceGraphic" in2="effect1_dropShadow_56_2041" result="shape"/>
</filter>
</defs>
</svg>
