<svg width="362" height="318" viewBox="0 0 362 318" fill="none" xmlns="http://www.w3.org/2000/svg">
<g clip-path="url(#clip0_16_31)">
<path d="M250.156 317.199H147.44C132.034 317.199 119.5 305.056 119.5 290.131V27.0683C119.5 12.1429 132.034 0 147.44 0H250.156C265.562 0 278.096 12.1429 278.096 27.0683C280.008 132.706 283.269 251.004 278.096 290.131C278.096 305.056 265.562 317.199 250.156 317.199Z" fill="#3F3D56"/>
<path d="M279.529 96.7629C278.877 96.7629 278.347 97.2765 278.347 97.9081V134.552C278.347 135.184 278.877 135.697 279.529 135.697C280.181 135.697 280.711 135.184 280.711 134.552V97.9081C280.711 97.2765 280.181 96.7629 279.529 96.7629Z" fill="#3F3D56"/>
<path d="M275.437 27.0685V290.126C275.437 303.117 265 313.744 251.803 314.569H251.797C251.602 314.58 251.407 314.592 251.206 314.597C250.857 314.614 250.509 314.62 250.154 314.62C250.154 314.62 248.854 314.529 246.478 314.357C244.079 314.185 240.586 313.927 236.23 313.59C234.924 313.492 233.547 313.383 232.093 313.269C229.197 313.04 226.018 312.788 222.608 312.502C221.248 312.393 219.842 312.273 218.405 312.152C211.065 311.54 202.844 310.824 194.174 310.011C192.709 309.879 191.231 309.742 189.742 309.599C189.352 309.559 122.16 293.195 122.16 290.126V27.0685C122.16 13.5389 133.478 2.57434 147.443 2.57434H162.537C164.949 2.57434 166.887 4.39508 167.094 6.72541C167.112 6.88001 167.129 7.03458 167.159 7.18919C167.596 9.53098 169.812 11.1628 172.271 11.1628H225.326C227.785 11.1628 230.001 9.53098 230.438 7.18919C230.468 7.03459 230.486 6.88002 230.503 6.72541C230.71 4.39509 232.649 2.57434 235.06 2.57434H250.154C264.119 2.57434 275.437 13.5389 275.437 27.0685Z" fill="white"/>
<path d="M118.909 69.28C118.257 69.28 117.727 69.7936 117.727 70.4252V79.5861C117.727 80.2177 118.257 80.7313 118.909 80.7313C119.561 80.7313 120.091 80.2177 120.091 79.5861V70.4252C120.091 69.7936 119.561 69.28 118.909 69.28Z" fill="#3F3D56"/>
<path d="M118.909 96.7629C118.257 96.7629 117.727 97.2765 117.727 97.9081V115.657C117.727 116.289 118.257 116.803 118.909 116.803C119.561 116.803 120.091 116.289 120.091 115.657V97.9081C120.091 97.2765 119.561 96.7629 118.909 96.7629Z" fill="#3F3D56"/>
<path d="M118.909 121.956C118.257 121.956 117.727 122.469 117.727 123.101V140.85C117.727 141.482 118.257 141.995 118.909 141.995C119.561 141.995 120.091 141.482 120.091 140.85V123.101C120.091 122.469 119.561 121.956 118.909 121.956Z" fill="#3F3D56"/>
<path d="M162.149 6.58459H139.498C139.388 6.58459 139.299 6.67081 139.299 6.77715V9.25484C139.299 9.36119 139.388 9.4474 139.498 9.4474H162.149C162.259 9.4474 162.348 9.36119 162.348 9.25484V6.77715C162.348 6.67081 162.259 6.58459 162.149 6.58459Z" fill="#E6E6E6"/>
<path d="M238.795 9.44731C240.1 9.44731 241.159 8.42193 241.159 7.15707C241.159 5.8922 240.1 4.86682 238.795 4.86682C237.489 4.86682 236.431 5.8922 236.431 7.15707C236.431 8.42193 237.489 9.44731 238.795 9.44731Z" fill="#E6E6E6"/>
<path d="M245.296 9.44731C246.601 9.44731 247.66 8.42193 247.66 7.15707C247.66 5.8922 246.601 4.86682 245.296 4.86682C243.99 4.86682 242.932 5.8922 242.932 7.15707C242.932 8.42193 243.99 9.44731 245.296 9.44731Z" fill="#E6E6E6"/>
<path d="M251.797 9.44731C253.102 9.44731 254.161 8.42193 254.161 7.15707C254.161 5.8922 253.102 4.86682 251.797 4.86682C250.491 4.86682 249.433 5.8922 249.433 7.15707C249.433 8.42193 250.491 9.44731 251.797 9.44731Z" fill="#E6E6E6"/>
<path d="M121.183 312.41L113.978 312.409L110.551 285.488L121.184 285.489L121.183 312.41Z" fill="#FFB6B6"/>
<path d="M96.5003 312.251C96.276 312.617 96.1576 313.799 96.1576 314.224C96.1576 315.533 97.2523 316.593 98.6027 316.593H120.913C121.834 316.593 122.581 315.87 122.581 314.977V314.077C122.581 314.077 123.685 311.373 121.413 308.039C121.413 308.039 118.588 310.649 114.369 306.561L113.124 304.377L104.116 310.759L99.1231 311.355C98.0307 311.485 97.0622 311.335 96.5003 312.251Z" fill="#2F2E41"/>
<path d="M81.3425 275.018L74.1384 274.995L70.7996 248.064L81.4322 248.097L81.3425 275.018Z" fill="#FFB6B6"/>
<path d="M56.6608 274.784C56.4353 275.149 56.313 276.33 56.3117 276.755C56.3074 278.064 57.3986 279.128 58.749 279.132L81.0593 279.2C81.9805 279.203 82.7297 278.482 82.7327 277.589L82.7356 276.69C82.7356 276.69 83.8481 273.988 81.5868 270.648C81.5868 270.648 78.7542 273.249 74.5476 269.148L73.3103 266.96L64.2815 273.315L59.2865 273.895C58.1938 274.022 57.2257 273.869 56.6608 274.784Z" fill="#2F2E41"/>
<path d="M110.675 148.976L101.705 149.597C101.705 149.597 71.3377 166.324 68.7748 170.049C66.2119 173.773 62.6879 179.049 65.8915 184.636C69.0951 190.223 66.6569 257.866 66.6569 257.866L81.9656 254.511L91.774 183.737L112.277 180.944C112.277 180.944 119.325 195.676 116.762 207.863C114.199 220.05 112.918 227.499 112.918 227.499L109.714 299.504L122.208 299.194L133.421 232.465L152.643 179.703L127.655 151.149L110.675 148.976Z" fill="#2F2E41"/>
<path d="M154.885 72.626L136.304 74.4882L134.382 80.6955L116.442 90.0065L122.208 129.113L117.723 135.941L119.646 142.769C119.646 142.769 114.52 143.39 115.161 147.114L103.627 148.976C103.627 148.976 118.924 152.002 122.168 166.939C125.412 181.875 152.323 183.737 152.323 183.737L173.467 119.802L175.389 81.937L160.652 78.2126L154.885 72.626Z" fill="#E6E6E6"/>
<path d="M145.093 70.2705C153.07 70.2705 159.537 64.0052 159.537 56.2767C159.537 48.5481 153.07 42.2828 145.093 42.2828C137.115 42.2828 130.648 48.5481 130.648 56.2767C130.648 64.0052 137.115 70.2705 145.093 70.2705Z" fill="#FFB6B6"/>
<path d="M137.586 68.9016C137.586 68.9016 124.771 68.2809 126.053 58.3491C122.881 47.7729 125.688 40.9059 135.664 38.4856C135.664 38.4856 138.227 37.8649 138.867 37.8649C147.295 37.8649 151.682 40.3478 151.682 40.3478C151.682 40.3478 151.041 37.8893 151.682 38.4978C152.323 39.1063 152.963 40.3478 152.963 40.3478C152.963 40.3478 159.371 43.4515 159.371 49.6588C159.371 55.8662 159.371 53.3832 159.371 53.3832C159.371 53.3832 158.089 53.3832 156.808 49.6588C155.526 45.9344 147.23 48.4174 147.23 48.4174L147.837 49.6588L145.915 49.0381L143.993 50.9003L142.712 50.2796C142.712 50.2796 137.586 50.2796 138.227 50.2796C138.867 50.2796 138.421 54.498 138.421 54.498L133.741 59.5906L138.867 68.9016H137.586Z" fill="#2F2E41"/>
<path d="M69.3138 142.989C65.6659 144.917 63.7358 148.304 65.0027 150.553C66.2696 152.802 70.2539 153.062 73.9017 151.133C75.4986 150.289 76.7661 149.165 77.5806 147.98L92.9319 139.619L88.7286 132.723L74.0414 141.697C72.5718 141.72 70.9106 142.144 69.3138 142.989Z" fill="#FFB6B6"/>
<path d="M121.083 90.2962C121.083 90.2962 115.065 88.0765 112.992 90.7484C110.919 93.4204 97.222 125.842 97.222 125.842L77.1263 136.009L82.7774 145.543L108.655 137.197L125.728 106.946L121.083 90.2962Z" fill="#E6E6E6"/>
<path d="M310.882 194.909V262.312C310.882 268.273 305.995 273.122 299.988 273.122H132.087C126.08 273.122 121.193 268.273 121.193 262.312V194.909C121.193 188.948 126.08 184.099 132.087 184.099H299.988C305.995 184.099 310.882 188.948 310.882 194.909ZM299.988 271.85C305.296 271.85 309.6 267.58 309.6 262.312V228.33C309.6 204.604 290.217 185.37 266.306 185.37H132.087C126.778 185.37 122.475 189.641 122.475 194.909V262.312C122.475 267.58 126.778 271.85 132.087 271.85H299.988Z" fill="#3F3D56"/>
<path d="M196.562 224.821H174.632C174.08 224.821 173.63 225.268 173.63 225.816C173.63 226.365 174.08 226.811 174.632 226.811H196.562C197.115 226.811 197.565 226.365 197.565 225.816C197.565 225.268 197.115 224.821 196.562 224.821Z" fill="#2F2E41"/>
<path d="M229.886 224.821H207.956C207.403 224.821 206.953 225.268 206.953 225.816C206.953 226.365 207.403 226.811 207.956 226.811H229.886C230.439 226.811 230.889 226.365 230.889 225.816C230.889 225.268 230.439 224.821 229.886 224.821Z" fill="#2F2E41"/>
<path d="M196.562 235.699H174.632C174.08 235.699 173.63 236.145 173.63 236.694C173.63 237.242 174.08 237.689 174.632 237.689H196.562C197.115 237.689 197.565 237.242 197.565 236.694C197.565 236.145 197.115 235.699 196.562 235.699Z" fill="#2F2E41"/>
<path d="M229.886 235.699H207.956C207.403 235.699 206.953 236.145 206.953 236.694C206.953 237.242 207.403 237.689 207.956 237.689H229.886C230.439 237.689 230.889 237.242 230.889 236.694C230.889 236.145 230.439 235.699 229.886 235.699Z" fill="#2F2E41"/>
<path d="M264.212 236.694C264.212 236.145 263.763 235.699 263.21 235.699H241.28C240.727 235.699 240.277 236.145 240.277 236.694C240.277 237.242 240.727 237.689 241.28 237.689H263.21C263.763 237.689 264.212 237.242 264.212 236.694Z" fill="#2F2E41"/>
<path d="M183.746 216.136C184.299 216.136 184.748 215.69 184.748 215.141C184.748 214.593 184.299 214.146 183.746 214.146H161.816C161.263 214.146 160.813 214.593 160.813 215.141C160.813 215.69 161.263 216.136 161.816 216.136H183.746Z" fill="#2F2E41"/>
<path d="M248.329 215.731H270.259C270.812 215.731 271.262 215.285 271.262 214.736C271.262 214.188 270.812 213.742 270.259 213.742H248.329C247.777 213.742 247.327 214.188 247.327 214.736C247.327 215.285 247.777 215.731 248.329 215.731Z" fill="#2F2E41"/>
<path d="M192.984 215.941H238.45C239.003 215.941 239.452 215.494 239.452 214.946C239.452 214.397 239.003 213.951 238.45 213.951H192.984C192.431 213.951 191.981 214.397 191.981 214.946C191.981 215.494 192.431 215.941 192.984 215.941Z" fill="#2F2E41"/>
<path d="M210.873 245.581H188.943C188.39 245.581 187.94 246.028 187.94 246.576C187.94 247.125 188.39 247.571 188.943 247.571H210.873C211.426 247.571 211.875 247.125 211.875 246.576C211.875 246.028 211.426 245.581 210.873 245.581Z" fill="#2F2E41"/>
<path d="M268.918 157.051C268.918 136.024 251.007 124.457 230.548 118.979C204.318 111.955 185.108 126.168 192.179 157.051C193.782 164.05 197.615 172.225 202.36 179.218H240.012C252.589 171.093 268.918 173.371 268.918 157.051Z" fill="#2F2E41"/>
<path d="M229.985 196.8C232.127 192.748 234.842 189.825 237.834 187.6H202.569C211.645 200.465 223.682 208.722 229.985 196.8Z" fill="#2F2E41"/>
<path d="M225.916 134.541C228.18 134.541 230.015 136.362 230.015 138.609V146.744H221.817V138.609C221.817 136.362 223.652 134.541 225.916 134.541ZM232.065 146.744V138.609C232.065 135.239 229.312 132.507 225.916 132.507C222.52 132.507 219.767 135.239 219.767 138.609V146.744C217.503 146.744 215.668 148.565 215.668 150.811V160.98C215.668 163.227 217.503 165.048 219.767 165.048H232.065C234.329 165.048 236.164 163.227 236.164 160.98V150.811C236.164 148.565 234.329 146.744 232.065 146.744ZM219.767 148.778H232.065C233.197 148.778 234.115 149.688 234.115 150.811V160.98C234.115 162.104 233.197 163.014 232.065 163.014H219.767C218.635 163.014 217.717 162.104 217.717 160.98V150.811C217.717 149.688 218.635 148.778 219.767 148.778Z" fill="white"/>
<path d="M167.326 184.075C166.832 188.072 168.56 191.56 171.185 191.865C173.811 192.169 176.341 189.176 176.835 185.178C177.051 183.428 176.842 181.776 176.317 180.446L178.192 163.481L169.956 162.799L168.982 179.595C168.148 180.767 167.542 182.325 167.326 184.075Z" fill="#FFB6B6"/>
<path d="M169.302 82.8681C169.302 82.8681 178.272 80.3852 180.194 84.1096C182.116 87.834 186.601 136.872 186.601 136.872L177.952 176.015L168.02 173.495L173.146 133.768L166.098 103.973L169.302 82.8681Z" fill="#E6E6E6"/>
<path d="M37.4824 201.95C58.1834 201.95 74.9649 185.692 74.9649 165.637C74.9649 145.581 58.1834 129.324 37.4824 129.324C16.7815 129.324 0 145.581 0 165.637C0 185.692 16.7815 201.95 37.4824 201.95Z" fill="#2F2E41"/>
<path d="M37.4825 149.38C40.1303 149.38 42.2768 151.46 42.2768 154.025V163.314H32.6882V154.025C32.6882 151.46 34.8347 149.38 37.4825 149.38ZM44.6739 163.314V154.025C44.6739 150.177 41.4542 147.058 37.4825 147.058C33.5108 147.058 30.2911 150.177 30.2911 154.025V163.314C27.6433 163.314 25.4968 165.394 25.4968 167.959V179.571C25.4968 182.136 27.6433 184.215 30.2911 184.215H44.6739C47.3217 184.215 49.4682 182.136 49.4682 179.571V167.959C49.4682 165.394 47.3217 163.314 44.6739 163.314ZM30.2911 165.637H44.6739C45.9978 165.637 47.071 166.676 47.071 167.959V179.571C47.071 180.853 45.9978 181.893 44.6739 181.893H30.2911C28.9672 181.893 27.894 180.853 27.894 179.571V167.959C27.894 166.676 28.9672 165.637 30.2911 165.637Z" fill="white"/>
</g>
<defs>
<clipPath id="clip0_16_31">
<rect width="362" height="318" fill="white"/>
</clipPath>
</defs>
</svg>
